<svg xmlns="http://www.w3.org/2000/svg" width="28" height="29" fill="none"><rect width="28" height="28" y=".359" fill="#83D187" rx="4"/><path fill="#DDFFDF" d="M22.874 18.164v.979c0 .648-.43 1.202-1.034 1.418v2.743c1.255-.247 2.2-1.305 2.2-2.57v-2.57h-1.166ZM14.768 10.807V9.784c0-.886-.346-1.745-.974-2.419a3.66 3.66 0 0 0-2.196-1.142 442.393 442.393 0 0 0-1.558-1.424l-.236-.212c-.126-.111-.36-.318-.708-.184l-.373.143.05 2.199-.092.062c-.599.411-1 1.044-1.103 1.738L5.982 9.556l-.005.695c-.004.53.21 1.03.603 1.406a2.12 2.12 0 0 0 1.475.583h1.216v1.02c0 .505.085 1.006.254 1.486l.9 2.568v3.901c-.945.212-1.652 1.02-1.654 1.98l-.002.162h3.48c.095-.865.763-1.572 1.636-1.77v-.68c0-1.86 1.594-3.375 3.553-3.375h.086v1.109h-.086c-1.315 0-2.385 1.017-2.385 2.267v1.734h-.672a.97.97 0 0 0-.951.716l7.278.001v-2.724c0-2.42-.955-4.73-2.689-6.503l-3.251-3.325Z"/></svg>