<svg width="20" height="20" viewBox="0 0 20 20" fill="none" xmlns="http://www.w3.org/2000/svg">
<g clip-path="url(#clip0_613_112)">
<path d="M6.2918 18.1251C13.8371 18.1251 17.9652 11.8724 17.9652 6.45165C17.9652 6.27587 17.9613 6.09618 17.9535 5.9204C18.7566 5.33965 19.4496 4.62031 20 3.79618C19.2521 4.12894 18.458 4.34625 17.6449 4.44072C18.5011 3.92753 19.1421 3.12133 19.4492 2.17158C18.6438 2.6489 17.763 2.98561 16.8445 3.16728C16.2257 2.50974 15.4075 2.07437 14.5164 1.92848C13.6253 1.78259 12.711 1.93431 11.9148 2.36018C11.1186 2.78606 10.4848 3.46236 10.1115 4.28453C9.73825 5.1067 9.64619 6.02895 9.84961 6.90868C8.21874 6.82685 6.62328 6.40319 5.16665 5.66518C3.71002 4.92718 2.42474 3.8913 1.39414 2.6247C0.870333 3.52781 0.710047 4.59647 0.945859 5.61351C1.18167 6.63055 1.79589 7.51964 2.66367 8.10009C2.01219 8.07941 1.37498 7.904 0.804688 7.58837V7.63915C0.804104 8.58689 1.13175 9.50559 1.73192 10.2391C2.3321 10.9726 3.16777 11.4756 4.09687 11.6626C3.49338 11.8277 2.85999 11.8518 2.2457 11.7329C2.50788 12.548 3.01798 13.2608 3.70481 13.772C4.39164 14.2832 5.22093 14.5673 6.07695 14.5845C4.62369 15.726 2.82848 16.3452 0.980469 16.3423C0.652739 16.3418 0.325333 16.3217 0 16.2821C1.87738 17.4866 4.06128 18.1263 6.2918 18.1251Z" fill="#1D2130"/>
</g>
<defs>
<clipPath id="clip0_613_112">
<rect width="20" height="20" fill="white"/>
</clipPath>
</defs>
</svg>
