<svg xmlns="http://www.w3.org/2000/svg" width="28" height="28" fill="none"><rect width="28" height="28" fill="#83D187" rx="4"/><path fill="#DDFFDF" d="M22.797 19.441a3.118 3.118 0 0 1-.724-.702c-.483-.548-1.097-1.228-2.238-1.228s-1.733.658-2.238 1.25c-.505.593-.834.944-1.58.944-.746 0-1.119-.417-1.58-.944-.46-.526-1.075-1.25-2.237-1.25-1.163 0-1.734.658-2.239 1.25-.504.593-.833.944-1.58.944-.745 0-1.118-.417-1.579-.944a3.73 3.73 0 0 0-1.163-1.01.442.442 0 0 0-.395.79c.345.208.65.476.9.79.504.593 1.097 1.251 2.238 1.251 1.14 0 1.733-.658 2.238-1.25.504-.593.834-.944 1.58-.944.745 0 1.119.417 1.58.944.46.526 1.074 1.25 2.237 1.25s1.733-.658 2.238-1.25c.505-.593.834-.944 1.58-.944.746 0 1.119.417 1.58.944.255.328.559.616.9.855a.444.444 0 0 0 .482-.746ZM22.797 16.15a3.116 3.116 0 0 1-.724-.702c-.483-.548-1.097-1.229-2.238-1.229s-1.733.659-2.238 1.251c-.505.592-.834.944-1.58.944-.746 0-1.119-.417-1.58-.944-.46-.527-1.075-1.25-2.237-1.25-1.163 0-1.734.658-2.239 1.25-.504.592-.833.944-1.58.944-.745 0-1.118-.417-1.579-.944a3.73 3.73 0 0 0-1.163-1.01.441.441 0 1 0-.395.79c.345.208.65.476.9.79.504.593 1.097 1.251 2.238 1.251 1.14 0 1.733-.658 2.238-1.25.504-.593.834-.944 1.58-.944.745 0 1.119.417 1.58.944.46.526 1.074 1.25 2.237 1.25s1.733-.658 2.238-1.25c.505-.593.834-.944 1.58-.944.746 0 1.119.417 1.58.944.255.328.559.616.9.855a.444.444 0 1 0 .482-.746ZM22.797 12.64a3.118 3.118 0 0 1-.724-.703c-.483-.548-1.097-1.228-2.238-1.228s-1.733.658-2.238 1.25c-.505.593-.834.944-1.58.944-.746 0-1.119-.417-1.58-.944-.46-.526-1.075-1.25-2.237-1.25-1.163 0-1.734.658-2.239 1.25-.504.593-.833.944-1.58.944-.745 0-1.118-.417-1.579-.944a3.73 3.73 0 0 0-1.163-1.009.442.442 0 0 0-.395.79c.345.208.65.475.9.79.504.592 1.097 1.25 2.238 1.25 1.14 0 1.733-.658 2.238-1.25.504-.592.834-.944 1.58-.944.745 0 1.119.417 1.58.944.46.526 1.074 1.25 2.237 1.25s1.733-.658 2.238-1.25c.505-.593.834-.944 1.58-.944.746 0 1.119.417 1.58.944.255.328.559.617.9.856a.444.444 0 1 0 .482-.746ZM5.244 8.449c.345.208.65.475.9.79.505.592 1.097 1.25 2.238 1.25 1.14 0 1.733-.658 2.238-1.25.505-.593.834-.944 1.58-.944.746 0 1.119.417 1.58.944.46.526 1.075 1.25 2.237 1.25 1.163 0 1.734-.658 2.238-1.25.505-.593.834-.944 1.58-.944.746 0 1.12.417 1.58.944.256.328.559.617.9.855a.444.444 0 1 0 .482-.745 3.114 3.114 0 0 1-.724-.703c-.483-.548-1.097-1.228-2.238-1.228-1.14 0-1.733.658-2.238 1.25-.505.593-.834.944-1.58.944-.746 0-1.119-.417-1.58-.944-.46-.526-1.074-1.25-2.237-1.25s-1.734.658-2.238 1.25c-.505.593-.834.944-1.58.944-.746 0-1.119-.417-1.58-.944A3.73 3.73 0 0 0 5.64 7.66a.442.442 0 1 0-.395.79Z"/></svg>