<svg xmlns="http://www.w3.org/2000/svg" width="24" height="25" fill="none"><g filter="url(#a)"><path fill="#fff" d="M0 12.5C0 5.873 5.373.5 12 .5s12 5.373 12 12-5.373 12-12 12-12-5.373-12-12Z"/></g><path fill="#1D2130" d="M8.993 14.214V10.68c0-1.507 0-2.26.49-2.55.491-.29 1.151.072 2.472.797l3.03 1.663c1.338.735 2.007 1.102 2.022 1.677.015.574-.635.975-1.934 1.778l-3.03 1.871c-1.35.834-2.024 1.25-2.537.965-.513-.286-.513-1.08-.513-2.667Z"/><defs><filter id="a" width="184" height="184" x="-80" y="-79.5" color-interpolation-filters="sRGB" filterUnits="userSpaceOnUse"><feFlood flood-opacity="0" result="BackgroundImageFix"/><feGaussianBlur in="BackgroundImageFix" stdDeviation="40"/><feComposite in2="SourceAlpha" operator="in" result="effect1_backgroundBlur_604_49"/><feBlend in="SourceGraphic" in2="effect1_backgroundBlur_604_49" result="shape"/></filter></defs></svg>