<svg xmlns="http://www.w3.org/2000/svg" width="28" height="29" fill="none"><rect width="28" height="28" y=".359" fill="#83D187" rx="4"/><path fill="#DDFFDF" d="M13.882 12.6c.17.063.336-.09.28-.253-.386-1.122-1.78-1.54-3.077-.545-.682.523-.939.634-.945.637.45.425.963 1.85 2.084 2.007 1.235.212 2.328-.936 1.434-1.461a3.985 3.985 0 0 0-2.023-.546 4.04 4.04 0 0 1 2.247.162ZM19.474 11.802c-2.238-1.717-3.665.99-2.778.722a4.03 4.03 0 0 1 2.01-.085c-1.17 0-2.25.507-2.97 1.332.06-1.297.149-2.108.252-2.712.599-.02 1.396-.475 1.834-1.273.754-1.276.404-2.584.292-3.41-.59.543-3.166-.092-4.187 1.56-.452.73-.32 1.619.154 2.269.15.206.51.107.52-.143.044-1.086.617-1.907 1.684-2.362a4.787 4.787 0 0 0-.956 1.92c-.252 1.057-.516 1.75-.613 5.118-.01.341.283.624.645.62a.648.648 0 0 0 .587-.389c.153-.347.402-.706.808-1.035.385.402.972.616 1.579.512 1.116-.157 1.637-1.585 2.084-2.007-.006-.003-.262-.114-.945-.637ZM22.765 15.998c-.7-.449-1.462-.13-1.811.061l-4.39 3.034h-2.57l-.642-.606h2.36c.71 0 1.505-.437 1.505-1.214 0-.825-.795-1.214-1.505-1.214h-.884c-.657 0-1.425.056-1.966-.218a4.012 4.012 0 0 0-1.74-.388c-1.06 0-2.011.4-2.662 1.03L5 19.7l3.855 3.64 1.285-1.82h6.072c.648 0 1.273-.224 1.757-.63l4.84-4.06a.514.514 0 0 0-.044-.832Z"/></svg>