<svg xmlns="http://www.w3.org/2000/svg" width="28" height="29" fill="none"><rect width="28" height="28" y=".359" fill="#83D187" rx="4"/><path fill="#DDFFDF" d="M14.94 18.956h.878v2.403h-.878v-2.403ZM13.182 18.956h.878v2.403h-.878v-2.403Z"/><path fill="#DDFFDF" d="M17.459 6.359h-5.918a.44.44 0 0 0-.44.44v14.56h1.202v-2.842a.44.44 0 0 1 .44-.44h3.515a.44.44 0 0 1 .44.44v2.842h1.2V6.799a.44.44 0 0 0-.439-.44Zm-4.277 10.4a.44.44 0 1 1-.88 0v-.879a.44.44 0 0 1 .88 0v.88Zm0-2.636a.44.44 0 1 1-.88 0v-.88a.44.44 0 0 1 .88 0v.88Zm1.758 2.636a.44.44 0 0 1-.88 0v-.879a.44.44 0 0 1 .88 0v.88Zm0-2.636a.44.44 0 0 1-.88 0v-.88a.44.44 0 0 1 .88 0v.88Zm1.757 2.636a.44.44 0 0 1-.879 0v-.879a.44.44 0 1 1 .88 0v.88Zm0-2.636a.44.44 0 0 1-.879 0v-.88a.44.44 0 1 1 .88 0v.88Zm-3.515-2.637a.44.44 0 1 1-.88 0v-.88a.44.44 0 0 1 .88 0v.88Zm1.758 0a.44.44 0 0 1-.88 0v-.88a.44.44 0 0 1 .88 0v.88Zm1.757 0a.44.44 0 0 1-.879 0v-.88a.44.44 0 1 1 .88 0v.88Zm-3.515-2.637a.44.44 0 1 1-.88 0V7.97a.44.44 0 0 1 .88 0v.88Zm1.758 0a.44.44 0 0 1-.88 0V7.97a.44.44 0 0 1 .88 0v.88Zm1.757 0a.44.44 0 0 1-.879 0V7.97a.44.44 0 1 1 .88 0v.88ZM21.56 12.218h-2.783v9.14h2.784A.44.44 0 0 0 22 20.92v-8.261a.44.44 0 0 0-.44-.44Zm-.732 5.713a.44.44 0 0 1-.879 0v-.879a.44.44 0 0 1 .88 0v.88Zm0-2.637a.44.44 0 1 1-.879 0v-.879a.44.44 0 0 1 .88 0v.88ZM7.44 12.218a.44.44 0 0 0-.44.44v8.261c0 .243.197.44.44.44h2.783v-9.14H7.439Zm1.61 5.713a.44.44 0 0 1-.878 0v-.879a.44.44 0 0 1 .879 0v.88Zm0-2.637a.44.44 0 0 1-.878 0v-.879a.44.44 0 0 1 .879 0v.88Z"/></svg>