<svg xmlns="http://www.w3.org/2000/svg" width="130" height="27" fill="none"><g fill="#111" clip-path="url(#a)"><path d="M129.77 20.109v3.217h-2.699c-2.88-.09-4.419-1.646-4.419-4.567v-7.347h-1.884V8.59h1.884V5.43h3.983v3.127h3.044v2.814h-3.044v6.994c0 .946.189 1.703 1.645 1.703l1.49.04ZM104.897 15.987v-.214a7.202 7.202 0 0 1 6.887-7.52h.576c3.76 0 7.059 2.188 7.059 7.405v1.11H108.97c.107 2.403 1.407 3.76 3.595 3.76 1.884 0 2.765-.822 3.02-2.024h3.76c-.461 3.135-2.962 4.88-6.92 4.88-4.344-.034-7.528-2.782-7.528-7.397Zm10.606-1.736c-.14-2.19-1.243-3.242-3.16-3.242s-3.02 1.185-3.291 3.242h6.451ZM88.639 15.987v-.214a7.2 7.2 0 0 1 6.87-7.52h.576c3.76 0 7.068 2.188 7.068 7.405v1.11H92.711c.107 2.403 1.407 3.76 3.596 3.76 1.884 0 2.764-.822 3.02-2.024h3.76c-.469 3.135-2.971 4.88-6.928 4.88-4.336-.034-7.52-2.782-7.52-7.397Zm10.605-1.736c-.14-2.19-1.242-3.242-3.16-3.242-1.916 0-2.986 1.217-3.29 3.233l6.45.008ZM65.823 8.557h4.212l2.576 9.758 2.822-9.758h3.291l2.55 9.758 2.716-9.758h3.859l-4.575 14.497h-3.95l-2.468-9.1-2.64 9.1h-4L65.823 8.557ZM52.436 18.496h3.76c.173 1.309.823 2.057 2.55 2.057 1.548 0 2.264-.584 2.264-1.58 0-.995-.823-1.415-2.93-1.71-3.858-.585-5.348-1.696-5.348-4.526 0-3.02 2.765-4.517 5.76-4.517 3.217 0 5.644 1.168 5.99 4.5H60.77a1.957 1.957 0 0 0-2.148-1.769H58.5c-1.3 0-2.057.61-2.057 1.498s.7 1.275 2.822 1.58c3.604.543 5.62 1.456 5.62 4.558s-2.28 4.764-6.097 4.764c-3.818 0-6.245-1.72-6.352-4.855ZM36.458 8.557h3.982v2.295a4.986 4.986 0 0 1 4.698-2.632c2.822 0 4.87 1.72 4.87 5.644v9.223h-3.932V14.44c0-1.967-.765-2.905-2.543-2.905a2.864 2.864 0 0 0-3.101 2.617 2.25 2.25 0 0 0 0 .526v8.376h-3.974V8.557ZM28.773 4.912a2.008 2.008 0 1 1 2.073 1.934h-.074a1.876 1.876 0 0 1-1.991-1.761 1.231 1.231 0 0 1-.008-.173Zm0 3.645h4.023v14.498H28.79l-.016-14.498ZM13.609 3.242h12.72v3.513h-8.228v5.241h6.517v3.382h-6.525v7.676H13.61V3.242ZM5.932 9.725c0 1.243 0 2.757-1.711 3.374 1.752.6 1.711 1.876 1.711 3.209v4.936c0 .938.379 1.506 1.053 1.646.149.05.305.072.461.066h1.646v3.29H6.377c-2.897 0-4.493-1.645-4.493-4.697v-5.842a1.201 1.201 0 0 0-1.176-1.119H0V11.7h.708a1.193 1.193 0 0 0 1.176-1.152V4.624C1.884 1.621 3.447 0 6.377 0h2.74v3.242H7.47c-.157 0-.312.025-.46.074-.676.173-1.054.732-1.054 1.645l-.025 4.764Z"/></g><defs><clipPath id="a"><path fill="#fff" d="M0 0h130v26.329H0z"/></clipPath></defs></svg>