<svg xmlns="http://www.w3.org/2000/svg" width="110" height="23" fill="none"><g fill="#fff" clip-path="url(#a)"><path d="M109.805 17.015v2.722h-2.283c-2.437-.076-3.739-1.392-3.739-3.863V9.655h-1.594V7.268h1.594V4.595h3.37v2.646h2.576v2.38h-2.576v5.918c0 .8.16 1.441 1.392 1.441l1.26.035ZM88.759 13.527v-.18a6.092 6.092 0 0 1 5.827-6.364h.487c3.182 0 5.974 1.852 5.974 6.266v.94h-8.842c.09 2.032 1.19 3.181 3.042 3.181 1.595 0 2.34-.696 2.555-1.712h3.182c-.39 2.652-2.506 4.128-5.855 4.128-3.676-.028-6.37-2.353-6.37-6.259Zm8.974-1.469c-.119-1.852-1.052-2.743-2.674-2.743-1.622 0-2.555 1.003-2.784 2.743h5.458ZM75.002 13.527v-.18a6.092 6.092 0 0 1 5.813-6.364h.488c3.181 0 5.98 1.852 5.98 6.266v.94h-8.835c.09 2.032 1.19 3.181 3.043 3.181 1.594 0 2.339-.696 2.555-1.712h3.181c-.397 2.652-2.513 4.128-5.862 4.128-3.669-.028-6.363-2.353-6.363-6.259Zm8.974-1.469c-.118-1.852-1.051-2.743-2.673-2.743-1.623 0-2.528 1.03-2.785 2.736l5.458.007ZM55.696 7.24h3.565l2.179 8.257 2.388-8.257h2.785l2.158 8.257 2.297-8.257h3.266l-3.871 12.268H67.12l-2.089-7.7-2.234 7.7h-3.384L55.696 7.24ZM44.369 15.65h3.181c.147 1.108.697 1.741 2.159 1.741 1.309 0 1.914-.494 1.914-1.337 0-.842-.696-1.197-2.478-1.448-3.265-.494-4.526-1.434-4.526-3.829 0-2.555 2.34-3.822 4.874-3.822 2.722 0 4.776.989 5.068 3.808h-3.14a1.656 1.656 0 0 0-1.817-1.497H49.5c-1.1 0-1.74.516-1.74 1.268s.591 1.079 2.387 1.336c3.05.46 4.755 1.232 4.755 3.857s-1.928 4.031-5.158 4.031c-3.23 0-5.285-1.455-5.375-4.107ZM30.849 7.24h3.37v1.943a4.22 4.22 0 0 1 3.975-2.228c2.387 0 4.121 1.455 4.121 4.776v7.804h-3.328v-7.317c0-1.664-.647-2.457-2.151-2.457a2.423 2.423 0 0 0-2.625 2.214 1.908 1.908 0 0 0 0 .445v7.088H30.85V7.24ZM24.346 4.156a1.699 1.699 0 1 1 1.755 1.637h-.063a1.587 1.587 0 0 1-1.685-1.49 1.02 1.02 0 0 1-.007-.147Zm0 3.085h3.404v12.267h-3.39L24.346 7.24ZM11.515 2.743h10.763v2.973h-6.962v4.434h5.514v2.862h-5.52v6.495h-3.795V2.744ZM5.02 8.23c0 1.05 0 2.331-1.448 2.854 1.482.508 1.448 1.587 1.448 2.715v4.177c0 .794.32 1.274.89 1.392.126.043.258.062.39.056h1.393v2.785H5.396c-2.451 0-3.802-1.392-3.802-3.976V13.29a1.016 1.016 0 0 0-.995-.946H0V9.9h.599a1.01 1.01 0 0 0 .995-.975V3.913C1.594 1.372 2.917 0 5.396 0h2.318v2.743H6.322c-.133 0-.264.022-.39.063-.571.146-.891.62-.891 1.392L5.02 8.23Z"/></g><defs><clipPath id="a"><path fill="#fff" d="M0 0h110v22.279H0z"/></clipPath></defs></svg>